<svg width="180" height="40" viewBox="0 0 180 40" fill="none" xmlns="http://www.w3.org/2000/svg">
<path d="M3.7313 3.77876C4.24049 1.83811 6.00353 0.5 8.01902 0.5H171.981C173.996 0.5 175.76 1.83811 176.269 3.77876C176.894 6.16029 177.703 9.38091 178.357 12.432C179.013 15.4996 179.5 18.3444 179.5 20C179.5 21.6556 179.013 24.5004 178.357 27.568C177.703 30.6191 176.894 33.8397 176.269 36.2212C175.76 38.1619 173.996 39.5 171.981 39.5H8.01901C6.00353 39.5 4.24049 38.1619 3.7313 36.2212C3.10642 33.8397 2.29664 30.6191 1.64344 27.568C0.986706 24.5004 0.5 21.6556 0.5 20C0.5 18.3444 0.986706 15.4996 1.64344 12.432C2.29664 9.38091 3.10642 6.16029 3.7313 3.77876Z" fill="url(#paint0_linear_171_251)" stroke="#2DAD96"/>
<defs>
<linearGradient id="paint0_linear_171_251" x1="87.3529" y1="3.09696e-07" x2="87.3529" y2="38.5" gradientUnits="userSpaceOnUse">
<stop stop-color="#49D0B8"/>
<stop offset="0.975" stop-color="#226357"/>
</linearGradient>
</defs>
</svg>
